<svg xmlns="http://www.w3.org/2000/svg" viewBox="0 0 210.44 29.86"><g id="Ebene_2" data-name="Ebene 2"><g id="Ebene_1-2" data-name="Ebene 1"><path d="M0,15.63C0,7.39,6.49,1.4,15.36,1.4s15.35,6,15.35,14.23S24.22,29.86,15.36,29.86,0,23.87,0,15.63Zm21.46,0c0-4.24-2.72-6.8-6.1-6.8s-6.11,2.56-6.11,6.8,2.73,6.8,6.11,6.8S21.46,19.87,21.46,15.63Z"/><path d="M47.35,5c0,1.24-.15,2.17-1.51,5.09l-2.73,5.79H37.67l1.95-6.57A4.5,4.5,0,0,1,37.09,5a4.82,4.82,0,0,1,5.13-5A4.82,4.82,0,0,1,47.35,5Z"/><path d="M79.43,22.12v7.12h-25V23.6L66.87,9.14H54.82V2h24V7.66L66.36,22.12Z"/><path d="M105.71,24.49H95.36l-1.82,4.75H84.21L96.1,2h9L117,29.24h-9.49Zm-2.53-6.61L100.54,11l-2.65,6.84Z"/><path d="M149.05,12.29c0,6.29-4.82,10.26-12.4,10.26h-3.93v6.69h-9.17V2h13.1C144.23,2,149.05,6,149.05,12.29Zm-9.25,0c0-2-1.21-3.19-3.73-3.19h-3.35v6.37h3.35C138.59,15.47,139.8,14.27,139.8,12.29Z"/><path d="M166.27,8.94v4.67h11.36v6.92H166.27v8.71H157.1V2h22.12V8.94Z"/><path d="M193.29,9.14h-8V2h25.12V9.14h-8v20.1h-9.18Z"/></g></g></svg>